<svg width="512" height="512" viewBox="0 0 512 512" fill="none" xmlns="http://www.w3.org/2000/svg">
  <!-- Background Circle -->
  <circle cx="256" cy="256" r="256" fill="url(#gradient)"/>

  <!-- Lightning Bolt -->
  <path d="M320 140L200 280H280L240 380L360 240H280L320 140Z" fill="white" stroke="white" stroke-width="8" stroke-linejoin="round"/>

  <!-- Currency Symbol -->
  <circle cx="256" cy="256" r="140" stroke="white" stroke-width="12" fill="none" opacity="0.4"/>
  <path d="M280 200C280 189.5 271.5 181 261 181H235C224.5 181 216 189.5 216 200V220C216 230.5 224.5 239 235 239H261C271.5 239 280 247.5 280 258V278C280 288.5 271.5 297 261 297H235C224.5 297 216 288.5 216 278" stroke="white" stroke-width="10" stroke-linecap="round"/>
  <line x1="248" y1="168" x2="248" y2="188" stroke="white" stroke-width="10" stroke-linecap="round"/>
  <line x1="248" y1="290" x2="248" y2="310" stroke="white" stroke-width="10" stroke-linecap="round"/>

  <!-- Gradient Definition -->
  <defs>
    <linearGradient id="gradient" x1="0" y1="0" x2="512" y2="512" gradientUnits="userSpaceOnUse">
      <stop offset="0%" stop-color="#2563eb"/>
      <stop offset="100%" stop-color="#1e40af"/>
    </linearGradient>
  </defs>
</svg>
